<?xml version="1.0" encoding="utf-8"?>
<!-- Generator: Adobe Illustrator 22.0.1, SVG Export Plug-In . SVG Version: 6.00 Build 0)  -->
<svg version="1.1" id="Layer_3" xmlns="http://www.w3.org/2000/svg" xmlns:xlink="http://www.w3.org/1999/xlink" x="0px" y="0px"
	 viewBox="0 0 23.1 25.3" style="enable-background:new 0 0 23.1 25.3;" xml:space="preserve">
<style type="text/css">
	.st0{fill:#CCD2DB;}
</style>
<title>asdMesa de trabajo 1</title>
<path class="st0" d="M19.2,4.8c-2.1-2.1-5-3.2-8-3.1C5.5,1.8,0.7,6.6,0.5,12.3c-0.1,3,1,5.8,3.1,8c2.1,2.1,4.9,3.3,7.9,3.3
	c0.6,0,1.1-0.5,1.1-1.1c0-0.6-0.5-1.1-1.1-1.1c-2.4,0-4.6-0.9-6.3-2.7c-1.7-1.7-2.6-4-2.5-6.4c0.1-4.6,4-8.4,8.5-8.5
	c2.4-0.1,4.6,0.9,6.4,2.5c2.8,2.4,2.7,6.9,2.7,6.9c0,0.9-0.7,1.7-1.7,1.7c-0.9,0-1.7-0.7-1.7-1.7c0,0,0.5-5.8-5.5-6.1
	C8.5,7,6,9.6,6,12.7s2.5,5.5,5.5,5.5c1.8,0,3.4-0.9,4.4-2.2c0.7,0.7,1.7,1.1,2.7,1.1c2.1,0,3.9-1.7,3.9-3.9v-0.6
	C22.5,9.7,21.4,6.9,19.2,4.8z M11.5,16c-1.8,0-3.3-1.5-3.3-3.3s1.5-3.3,3.3-3.3s3.3,1.5,3.3,3.3S13.4,16,11.5,16z"/>
</svg>
