<svg id="Layer_3" data-name="Layer 3" xmlns="http://www.w3.org/2000/svg" viewBox="0 0 23.06 25.31"><defs><style>.cls-1{fill:#ccd2db;}</style></defs><title>asdMesa de trabajo 1</title><path class="cls-1" d="M20.51,24.48h-18a2,2,0,0,1-2-2V11.82a2,2,0,0,1,2-2h18a2,2,0,0,1,2,2V22.48a2,2,0,0,1-2,2Zm-18-12.66V22.48h18V11.82Z"/><path class="cls-1" d="M6.09,10.57h-2V7.82a7.42,7.42,0,0,1,14.84,0h-2a5.42,5.42,0,1,0-10.84,0v2.75Z"/><path class="cls-1" d="M11.51,13.74a2.08,2.08,0,0,0-1,3.9V20h2V17.64a2.08,2.08,0,0,0-1-3.9Z"/></svg>